HIERARCHY
ROOT hips
{
  OFFSET 0 10.6860622 2.3727825e-15
  CHANNELS 6 Xposition Yposition Zposition Yrotation Xrotation Zrotation
  JOINT leftUpperLeg
  {
    OFFSET 0.6642549969 -0.9402397400000004 0
    CHANNELS 3 Yrotation Xrotation Zrotation
    JOINT leftLowerLeg
    {
      OFFSET 0 -3.997221335632195 0
      CHANNELS 3 Yrotation Xrotation Zrotation
      JOINT leftFoot
      {
        OFFSET -0.13777839790000004 -4.6145792000000005 -0.22186036399999998
        CHANNELS 3 Yrotation Xrotation Zrotation
        JOINT leftToes
        {
          OFFSET -0.03777410834999995 -0.9130806927000008 0.85230013
          CHANNELS 3 Yrotation Xrotation Zrotation
          End Site
          {
            OFFSET -0.03777410834999995 -0.9130806927000008 0.85230013
          }
        }
      }
    }
  }
  JOINT rightUpperLeg
  {
    OFFSET -0.6642778626 -0.9402397400000004 0
    CHANNELS 3 Yrotation Xrotation Zrotation
    JOINT rightLowerLeg
    {
      OFFSET 0 -3.997221452859387 0
      CHANNELS 3 Yrotation Xrotation Zrotation
      JOINT rightFoot
      {
        OFFSET 0.1377926176 -4.6145792000000005 -0.22185782299999995
        CHANNELS 3 Yrotation Xrotation Zrotation
        JOINT rightToes
        {
          OFFSET 0.037780746850000047 -0.9130806927000008 0.85230167
          CHANNELS 3 Yrotation Xrotation Zrotation
          End Site
          {
            OFFSET 0.037780746850000047 -0.9130806927000008 0.85230167
          }
        }
      }
    }
  }
  JOINT spine
  {
    OFFSET 0 0.13988381660000015 0
    CHANNELS 3 Yrotation Xrotation Zrotation
    JOINT chest
    {
      OFFSET 0 0.6191039003973773 0
      CHANNELS 3 Yrotation Xrotation Zrotation
      JOINT upperChest
      {
        OFFSET 0 0.9855186130586943 0
        CHANNELS 3 Yrotation Xrotation Zrotation
        JOINT leftShoulder
        {
          OFFSET 0.1807663869 1.5087829790000005 0
          CHANNELS 3 Yrotation Xrotation Zrotation
          JOINT leftUpperArm
          {
            OFFSET 0.5985063006419806 0 0
            CHANNELS 3 Yrotation Xrotation Zrotation
            JOINT leftLowerArm
            {
              OFFSET 2.2993332369501065 0 0
              CHANNELS 3 Yrotation Xrotation Zrotation
              JOINT leftHand
              {
                OFFSET 2.395047042602395 0 0
                CHANNELS 3 Yrotation Xrotation Zrotation
                JOINT leftIndexProximal
                {
                  OFFSET 0.5766295810000004 0.04556643899499946 0.17265095988184
                  CHANNELS 3 Yrotation Xrotation Zrotation
                  JOINT leftIndexIntermediate
                  {
                    OFFSET 0.2957229000000008 -0.019352197700001517 -0.007932640616999987
                    CHANNELS 3 Yrotation Xrotation Zrotation
                    JOINT leftIndexDistal
                    {
                      OFFSET 0.19008243099999922 -0.012484908149998475 -0.002786250786000012
                      CHANNELS 3 Yrotation Xrotation Zrotation
                      End Site
                      {
                        OFFSET 0.19008243099999922 -0.012484908149998475 -0.002786250786000012
                      }
                    }
                  }
                }
                JOINT leftMiddleProximal
                {
                  OFFSET 0.5834975091000001 0.0524350405149987 0.02204081888183999
                  CHANNELS 3 Yrotation Xrotation Zrotation
                  JOINT leftMiddleIntermediate
                  {
                    OFFSET 0.33880573540000003 -0.019871473270000717 -0.00000971183179999946
                    CHANNELS 3 Yrotation Xrotation Zrotation
                    JOINT leftMiddleDistal
                    {
                      OFFSET 0.20676022730000088 -0.012221336379999448 0.0001471936708000235
                      CHANNELS 3 Yrotation Xrotation Zrotation
                      End Site
                      {
                        OFFSET 0.20676022730000088 -0.012221336379999448 0.0001471936708000235
                      }
                    }
                  }
                }
                JOINT leftLittleProximal
                {
                  OFFSET 0.5344154683999995 -0.012880921405001189 -0.24414037221816004
                  CHANNELS 3 Yrotation Xrotation Zrotation
                  JOINT leftLittleIntermediate
                  {
                    OFFSET 0.21758961730000093 -0.011650919939999227 0.011893592810000034
                    CHANNELS 3 Yrotation Xrotation Zrotation
                    JOINT leftLittleDistal
                    {
                      OFFSET 0.1475273964999999 -0.008152365682999818 0.006001092492999946
                      CHANNELS 3 Yrotation Xrotation Zrotation
                      End Site
                      {
                        OFFSET 0.1475273964999999 -0.008152365682999818 0.006001092492999946
                      }
                    }
                  }
                }
                JOINT leftRingProximal
                {
                  OFFSET 0.5799399463000003 0.026911854694997794 -0.12150566991816003
                  CHANNELS 3 Yrotation Xrotation Zrotation
                  JOINT leftRingIntermediate
                  {
                    OFFSET 0.26167887460000006 -0.013480186499999602 0.010996293000000053
                    CHANNELS 3 Yrotation Xrotation Zrotation
                    JOINT leftRingDistal
                    {
                      OFFSET 0.17667108799999987 -0.008990287899999228 0.0055541023999999065
                      CHANNELS 3 Yrotation Xrotation Zrotation
                      End Site
                      {
                        OFFSET 0.17667108799999987 -0.008990287899999228 0.0055541023999999065
                      }
                    }
                  }
                }
                JOINT leftThumbProximal
                {
                  OFFSET 0.11018806699999972 -0.09448718900500053 0.17047963138184
                  CHANNELS 3 Yrotation Xrotation Zrotation
                  JOINT leftThumbIntermediate
                  {
                    OFFSET 0.31062601459999983 -0.08126270900000132 0.15443142000000007
                    CHANNELS 3 Yrotation Xrotation Zrotation
                    JOINT leftThumbDistal
                    {
                      OFFSET 0.21627175790000086 -0.08833193599999878 0.018771167799999988
                      CHANNELS 3 Yrotation Xrotation Zrotation
                      End Site
                      {
                        OFFSET 0.21627175790000086 -0.08833193599999878 0.018771167799999988
                      }
                    }
                  }
                }
              }
            }
          }
        }
        JOINT neck
        {
          OFFSET 0 1.5463305265074576 0
          CHANNELS 3 Yrotation Xrotation Zrotation
          JOINT head
          {
            OFFSET 0 0.8456443600000344 0
            CHANNELS 3 Yrotation Xrotation Zrotation
            JOINT leftEye
            {
              OFFSET 0.30408573140000006 0.5104519199999995 0.1276382305
              CHANNELS 3 Yrotation Xrotation Zrotation
              End Site
              {
                OFFSET 0.30408573140000006 0.5104519199999995 0.1276382305
              }
            }
            JOINT rightEye
            {
              OFFSET -0.30409491089999996 0.5104519199999995 0.1276379445
              CHANNELS 3 Yrotation Xrotation Zrotation
              End Site
              {
                OFFSET -0.30409491089999996 0.5104519199999995 0.1276379445
              }
            }
            JOINT jaw
            {
              OFFSET -3.155239131000001e-7 -0.11984121820000082 0.60178107
              CHANNELS 3 Yrotation Xrotation Zrotation
              End Site
              {
                OFFSET -3.155239131000001e-7 -0.11984121820000082 0.60178107
              }
            }
          }
        }
        JOINT rightShoulder
        {
          OFFSET -0.1807303465 1.5087829790000005 0
          CHANNELS 3 Yrotation Xrotation Zrotation
          JOINT rightUpperArm
          {
            OFFSET -0.5985063796536958 0 0
            CHANNELS 3 Yrotation Xrotation Zrotation
            JOINT rightLowerArm
            {
              OFFSET -2.2993322059002854 0 0
              CHANNELS 3 Yrotation Xrotation Zrotation
              JOINT rightHand
              {
                OFFSET -2.395045314457259 0 0
                CHANNELS 3 Yrotation Xrotation Zrotation
                JOINT rightIndexProximal
                {
                  OFFSET -0.5764487688300002 0.0441371204405987 0.17361932004999997
                  CHANNELS 3 Yrotation Xrotation Zrotation
                  JOINT rightIndexIntermediate
                  {
                    OFFSET -0.29573011380000047 -0.01934826376999843 -0.007698921482999974
                    CHANNELS 3 Yrotation Xrotation Zrotation
                    JOINT rightIndexDistal
                    {
                      OFFSET -0.19008373999999884 -0.012503266380000655 -0.0026365778999999897
                      CHANNELS 3 Yrotation Xrotation Zrotation
                      End Site
                      {
                        OFFSET -0.19008373999999884 -0.012503266380000655 -0.0026365778999999897
                      }
                    }
                  }
                }
                JOINT rightMiddleProximal
                {
                  OFFSET -0.5834852037300005 0.05211639405060153 0.02307162440000001
                  CHANNELS 3 Yrotation Xrotation Zrotation
                  JOINT rightMiddleIntermediate
                  {
                    OFFSET -0.33880114510000003 -0.019952774050000954 0.0002455003561999819
                    CHANNELS 3 Yrotation Xrotation Zrotation
                    JOINT rightMiddleDistal
                    {
                      OFFSET -0.20675694929999955 -0.012273788999999091 0.00030209124000002766
                      CHANNELS 3 Yrotation Xrotation Zrotation
                      End Site
                      {
                        OFFSET -0.20675694929999955 -0.012273788999999091 0.00030209124000002766
                      }
                    }
                  }
                }
                JOINT rightLittleProximal
                {
                  OFFSET -0.5346811737299992 -0.011214256288399227 -0.24363941305000003
                  CHANNELS 3 Yrotation Xrotation Zrotation
                  JOINT rightLittleIntermediate
                  {
                    OFFSET -0.21757715980000092 -0.011771559690000988 0.01201554387
                    CHANNELS 3 Yrotation Xrotation Zrotation
                    JOINT rightLittleDistal
                    {
                      OFFSET -0.1475201849000004 -0.00822055339600003 0.006082065407000015
                      CHANNELS 3 Yrotation Xrotation Zrotation
                      End Site
                      {
                        OFFSET -0.1475201849000004 -0.00822055339600003 0.006082065407000015
                      }
                    }
                  }
                }
                JOINT rightRingProximal
                {
                  OFFSET -0.5800810755299999 0.027657985680600072 -0.12066365025000003
                  CHANNELS 3 Yrotation Xrotation Zrotation
                  JOINT rightRingIntermediate
                  {
                    OFFSET -0.26166445029999974 -0.013623118409999302 0.011164098990000045
                    CHANNELS 3 Yrotation Xrotation Zrotation
                    JOINT rightRingDistal
                    {
                      OFFSET -0.17666387530000027 -0.009072900100000503 0.005668185599999959
                      CHANNELS 3 Yrotation Xrotation Zrotation
                      End Site
                      {
                        OFFSET -0.17666387530000027 -0.009072900100000503 0.005668185599999959
                      }
                    }
                  }
                }
                JOINT rightThumbProximal
                {
                  OFFSET -0.10997596379000074 -0.09577489355940072 0.16989765924999997
                  CHANNELS 3 Yrotation Xrotation Zrotation
                  JOINT rightThumbIntermediate
                  {
                    OFFSET -0.31036620999999986 -0.08229339117999834 0.15440884469999996
                    CHANNELS 3 Yrotation Xrotation Zrotation
                    JOINT rightThumbDistal
                    {
                      OFFSET -0.21631306399999906 -0.08825326400000111 0.018656797720000014
                      CHANNELS 3 Yrotation Xrotation Zrotation
                      End Site
                      {
                        OFFSET -0.21631306399999906 -0.08825326400000111 0.018656797720000014
                      }
                    }
                  }
                }
              }
            }
          }
        }
      }
    }
  }
}
MOTION
Frames: 10
Frame Time: 0.03333333333333333
0 11.682712981546562 0 0 0 0 0 0 -5.826343164929014 -0.3712483961610101 -3.6333298826370974 5.838118207697276 0 0 0 0 0 0 0 0 5.826343164929014 0.3712483961610101 -3.6333298826370974 -5.838118207697276 0 0 0 0 0 0 0 -4.610651315171937 0 0 3.0831277533083026 0 0 0 0 0 1.5275236235667615 0 0 0 0 0 0 0 0 0 0 0 0 0 0 0 0 0 0 0 0 0 0 0 0 0 0 0 0 0 0 0 0 0 0 0 0 0 0 0 0 0 0 0 0 0 0 0 0 0 0 0 0 0 0 0 0 1.5275236235667615 0 0 0 0 0 0 0 0 0 0 0 0 0 0 1.5275236235667615 0 0 0 0 0 0 0 0 0 0 0 0 0 0 0 0 0 0 0 0 0 0 0 0 0 0 0 0 0 0 0 0 0 0 0 0 0 0 0 0 0 0 0 0 0 0 0 0 0 0 0 0 0 0 0
0 1.3416592810290293 0 0 -13.00074855455698 0 -2.773393606074665e-15 -55.01200046364596 -5.8263428457616895 10.740266972471117 61.2968522514655 12.202490681960539 0 0 0 0 0 0 -7.4116866988656485 -55.27773708771229 3.9279818403457933 -10.740261732828646 61.2968522514655 -12.202487206910337 0 0 0 0 0 0 11.00592701468634 9.796920656572876 3.9981318748771635 3.581934757870759 13.03536834983995 1.2076743012178082 0 0 0 0 1.5275236235667615 0 -25.47298083551019 -6.657221554803674 3.338445958896906 -7.0002599974829165 0 0 0 -0.004371499915282937 0 0 0 0 0 0 0 0 0 0 0 0 0 0 0 0 0 0 0 0 0 0 0 0 0 0 0 0 0 0 0 0 0 0 0 0 0 0 0 0 0 0 0 0 0 0 0.2685423135838821 1.2294449396300229 -0.02239236175245377 9.534215019828341 -4.864021498718031 -1.237568459511835 0 0 0 0 0 0 0 0 0 0 1.5275236235667615 0 20.605338409070242 -8.508857391886615 -5.0447267345871305 58.79176849603017 -1.0766503708289952 3.9098519482962426 0 0 0 0 0 0 0 0 0 0 0 0 0 0 0 0 0 0 0 0 0 0 0 0 0 0 0 0 0 0 0 0 0 0 0 0 0 0 0 0 0 0 0 0 0 0 0 0
0 -8.999394419488503 0 0 -26.001497380190933 0 -180 -69.97599899662875 174.17365699595538 172.42118176865984 52.27152736754298 170.45084076491483 0 0 0 0 0 0 179.99524529318188 -68.995231262353 169.82924726456164 -172.42118591780599 52.27152736754298 -170.4508476444352 0 0 0 0 0 0 23.613493308768334 22.407855046227546 13.464904530852712 7.596418813605767 22.88706196995244 3.1541194023819696 0 0 0 0 1.5275236235667615 0 -51.68019959462906 -11.197818338283065 9.311393298533343 -14.00052048668649 0 0 0 -0.008742999856013435 0 0 0 0 0 0 0 0 0 0 0 0 0 0 0 0 0 0 0 0 0 0 0 0 0 0 0 0 0 0 0 0 0 0 0 0 0 0 0 0 0 0 0 0 0 0 0.5371747186866856 0.9314744615815215 -0.046179534992909166 19.27141946689091 -9.452703238001314 -3.286496897935758 0 0 0 0 0 0 0 0 0 0 1.5275236235667615 0 42.429610488568876 -14.623739192420523 -12.973558050458555 117.56176655241254 -4.978170066705852 5.0172641843813715 0 0 0 0 0 0 0 0 0 0 0 0 0 0 0 0 0 0 0 0 0 0 0 0 0 0 0 0 0 0 0 0 0 0 0 0 0 0 0 0 0 0 0 0 0 0 0 0
0 -8.999394419488503 0 0 -26.001497380190933 0 -180 -69.97599899662875 174.17365699595538 172.42118176865984 52.27152736754298 170.45084076491483 0 0.00011400000365683073 0 0 0 0 179.99524529318188 -68.995231262353 169.82924726456164 -172.42118591780599 52.27152736754298 -170.4508476444352 0 0 0 0 0 0 23.613493308768334 22.407855046227546 13.464904530852712 7.596418813605767 22.88706196995244 3.1541194023819696 0 0 0 0.0001200426577554578 1.5275236235667615 0.0000031999961625464672 -51.68019959462906 -11.197818338283065 9.311393298533343 -14.00052048668649 0 0 -0.00020752958039791896 -0.00970199944907348 0.0001664982632480726 0 0 0 0 0 0 0 0 0 0 0 0 0 0 0 0 0 0 0 0 0 0 0 0 0 0 0 0 0 0 0 0 0 0 0 0 0 0 0 0 0 0 0 0 0 0.7968848363099044 0.6455501511353111 -0.12147407411894529 19.118946483608504 -9.399611621990822 -3.256690234264507 0 0 0 0 0 0 0 0 0 0 1.5275236235667615 0 42.429610488568876 -14.623739192420523 -12.973558050458555 117.56176655241254 -4.978170066705852 5.0172641843813715 0 0 0 0 0 0 0 0 0 0 0 0 0 0 0 0 0 0 0 0 0 0 0 0 0 0 0 0 0 0 0 0 0 0 0 0 0 0 0 0 0 0 0 0 0 0 0 0
0 -8.999394419488503 0 0 -26.001497380190933 0 -180 -69.97599899662875 174.17365699595538 172.42118176865984 52.27152736754298 170.45084076491483 0 0.00022800000731411276 0 0 0 0 179.99524529318188 -68.995231262353 169.82924726456164 -172.42118591780599 52.27152736754298 -170.4508476444352 0 0 0 0 0 0 23.613493308768334 22.407855046227546 13.464904530852712 7.596418813605767 22.88706196995244 3.1541194023819696 0 0 0 0.00024008531550986166 1.5275236235667615 0.000006399992325092915 -51.68019959462906 -11.197818338283065 9.311393298533343 -14.00052048668649 0 0 -0.0004150619486865152 -0.010660997377324864 0.00033299999182215853 0 0 0 0 0 0 0 0 0 0 0 0 0 0 0 0 0 0 0 0 0 0 0 0 0 0 0 0 0 0 0 0 0 0 0 0 0 0 0 0 0 0 0 0 0 1.056959112325905 0.35997030612518854 -0.1980605885673194 18.966526162570194 -9.346440757405748 -3.2270312566483934 0 0 0 0 0 0 0 0 0 0 1.5275236235667615 0 42.429610488568876 -14.623739192420523 -12.973558050458555 117.56176655241254 -4.978170066705852 5.0172641843813715 0 0 0 0 0 0 0 0 0 0 0 0 0 0 0 0 0 0 0 0 0 0 0 0 0 0 0 0 0 0 0 0 0 0 0 0 0 0 0 0 0 0 0 0 0 0 0 0
0 -8.999394419488503 0 0 -26.001497380190933 0 -180 -69.97598902304036 174.173656768153 172.42118176865984 52.27152736754298 170.45084076491483 0 0.0003419999979447454 0 0 0 0 179.99524529318188 -68.995231262353 169.82924726456164 -172.42118591780599 52.27152736754298 -170.4508476444352 0 0 0 0 0 0 23.613496480816227 22.407856893235433 13.464906327091418 7.596418813605767 22.88706196995244 3.1541194023819696 0 0 0 0.000360127986294341 1.5275236235667615 0.00000959998828401146 -51.68019959462906 -11.197818338283065 9.311393298533343 -14.00052048668649 0 0 -0.0006226028109281072 -0.011619994474799578 0.000499998278561672 0 0 0 0 0 0 0 0 0 0 0 0 0 0 0 0 0 0 0 0 0 0 0 0 0 0 0 0 0 0 0 0 0 0 0 0 0 0 0 0 0 0 0 0 0 1.3178365846067077 0.07427479954058441 -0.27606917127795333 18.814041556015862 -9.293154299479376 -3.1974985010623094 0 0 0 0 0 0 0 0 0 0 1.5275236235667615 0 42.429610488568876 -14.623739192420523 -12.973558050458555 117.56176655241254 -4.978170066705852 5.0172641843813715 0 0 0 0 0 0 0 0 0 0 0 0 0 0 0 0 0 0 0 0 0 0 0 0 0 0 0 0 0 0 0 0 0 0 0 0 0 0 0 0 0 0 0 0 0 0 0 0
0 -8.999394419488503 0 0 -26.001499280035596 0 -180 -69.97598902304036 174.17365704657857 172.42118176865984 52.27152736754298 170.45084076491483 0 0.00045600001463183597 0 0 0 0 179.99524529318188 -68.995231262353 169.82924726456164 -172.42118591780599 52.27152736754298 -170.4508476444352 0 0 0 0 0 0 23.613496480816227 22.40785874024334 13.464907225210764 7.596418813605767 22.88706196995244 3.1541194023819696 0 0 0 0.0004801706310112923 1.5275236235667615 0.00001279998465018567 -51.68019959462906 -11.197818338283065 9.311393298533343 -14.00052131509754 0 0 -0.0008301464089392754 -0.012578990741766279 0.0006669999785113072 0 0 0 0 0 0 0 0 0 0 0 0 0 0 0 0 0 0 0 0 0 0 0 0 0 0 0 0 0 0 0 0 0 0 0 0 0 0 0 0 0 0 0 0 0 1.5791043351871947 -0.2110623006649877 -0.35537821460093355 18.66160851525247 -9.239789449916453 -3.1681138295109705 0 0 0 0 0 0 0 0 0 0 1.5275236235667615 0 42.429610488568876 -14.623739192420523 -12.973558050458555 117.56176655241254 -4.978170066705852 5.0172641843813715 0 0 0 0 0 0 0 0 0 0 0 0 0 0 0 0 0 0 0 0 0 0 0 0 0 0 0 0 0 0 0 0 0 0 0 0 0 0 0 0 0 0 0 0 0 0 0 0
0 -8.999394419488503 0 0 -26.001499280035596 0 -180 -69.97598902304036 174.173656768153 172.42118176865984 52.27152736754298 170.45084076491483 0 0.0005700000052656278 0 0 0 0 179.99524529318188 -68.995231262353 169.82924726456164 -172.42118591780599 52.27152736754298 -170.4508476444352 0 0 0 0 0 0 23.613496480816227 22.407856893235433 13.464906327091418 7.596419732204843 22.887063823416984 3.1541196337140707 0 0 0 0.0005997131265999367 1.5275236235667615 0.000015986647463995364 -51.68019959462906 -11.197818338283065 9.311393298533343 -14.00052048668649 0 0 -0.001037698292451712 -0.013537984510966914 0.0008334982417311833 0 0 0 0 0 0 0 0 0 0 0 0 0 0 0 0 0 0 0 0 0 0 0 0 0 0 0 0 0 0 0 0 0 0 0 0 0 0 0 0 0 0 0 0 0 1.8411789253385373 -0.4964738272380409 -0.4361158933077979 18.509114577110598 -9.186308144055683 -3.1388560067236093 0 0 0 0 0 0 0 0 0 0 1.5275236235667615 0 42.429610488568876 -14.623737427704645 -12.973558050458555 117.56176655241254 -4.978170066705852 5.0172641843813715 0 0 0 0 0 0 0 0 0 0 0 0 0 0 0 0 0 0 0 0 0 0 0 0 0 0 0 0 0 0 0 0 0 0 0 0 0 0 0 0 0 0 0 0 0 0 0 0
0 -8.999394419488503 0 0 -26.001499280035596 0 -180 -69.97599899662875 174.17365699595538 172.42118176865984 52.27152736754298 170.45084076491483 0 0.000683999995901676 0 0 0 0 179.99524529318188 -68.995231262353 169.82924726456164 -172.42118591780599 52.27152736754298 -170.4508476444352 0 0 0 0 0 0 23.613493308768334 22.407855046227546 13.464904530852712 7.596420191504379 22.887063823416984 3.154120096378273 0 0 0 0.0007192556221833598 1.5275236235667615 0.00001917331109231641 -51.68019959462906 -11.197818338283065 9.311393298533343 -14.00052048668649 0 0 -0.0012452530120007955 -0.014496978283960182 0.0010000000559255587 0 0 0 0 0 0 0 0 0 0 0 0 0 0 0 0 0 0 0 0 0 0 0 0 0 0 0 0 0 0 0 0 0 0 0 0 0 0 0 0 0 0 0 0 0 2.1036700949520184 -0.7815127599926439 -0.5181628480708728 18.35666947182786 -9.132750166032011 -3.1097470701794503 0 0 0 0 0 0 0 0 0 0 1.5275236235667615 0 42.429610488568876 -14.623737427704645 -12.973558050458555 117.56176655241254 -4.978170066705852 5.0172641843813715 0 0 0 0 0 0 0 0 0 0 0 0 0 0 0 0 0 0 0 0 0 0 0 0 0 0 0 0 0 0 0 0 0 0 0 0 0 0 0 0 0 0 0 0 0 0 0 0
0 -8.999394419488503 0 0 -26.001497380190933 0 -180 -69.97599899662875 174.17365699595538 172.42118176865984 52.27152736754298 170.45084076491483 0 0.0007979999865404322 0 0 0 0 179.99524529318188 -68.995231262353 169.82924726456164 -172.42118591780599 52.27152736754298 -170.4508476444352 0 0 0 0 0 0 23.613493308768334 22.407855046227546 13.46490542897207 7.596420191504379 22.887063823416984 3.154120096378273 0 0 0 0.0008392982408201938 1.5275236235667615 0.000022373306643978876 -51.68020232598103 -11.197818338283065 9.311393298533343 -14.00052048668649 0 0 -0.001453316265324658 -0.015455969559724668 0.0011669983786231559 0 0 0 0 0 0 0 0 0 0 0 0 0 0 0 0 0 0 0 0 0 0 0 0 0 0 0 0 0 0 0 0 0 0 0 0 0 0 0 0 0 0 0 0 0 2.3669713391289133 -1.0665843265158272 -0.6016425454901931 18.204169559844022 -9.079080054875876 -3.0807669011077943 0 0 0 0 0 0 0 0 0 0 1.5275236235667615 0 42.429610488568876 -14.623737427704645 -12.973558050458555 117.56176655241254 -4.978170066705852 5.0172641843813715 0 0 0 0 0 0 0 0 0 0 0 0 0 0 0 0 0 0 0 0 0 0 0 0 0 0 0 0 0 0 0 0 0 0 0 0 0 0 0 0 0 0 0 0 0 0 0 0
